<?xml version="1.0" encoding="UTF-8" standalone="no"?>
<!-- Created with Inkscape (http://www.inkscape.org/) -->

<svg
   width="210mm"
   height="297mm"
   viewBox="0 0 210 297"
   version="1.1"
   id="svg1234"
   inkscape:version="1.1.2 (b8e25be8, 2022-02-05)"
   sodipodi:docname="swallowtail arrow.svg"
   xmlns:inkscape="http://www.inkscape.org/namespaces/inkscape"
   xmlns:sodipodi="http://sodipodi.sourceforge.net/DTD/sodipodi-0.dtd"
   xmlns="http://www.w3.org/2000/svg"
   xmlns:svg="http://www.w3.org/2000/svg">
  <sodipodi:namedview
     id="namedview1236"
     pagecolor="#ffffff"
     bordercolor="#666666"
     borderopacity="1.0"
     inkscape:pageshadow="2"
     inkscape:pageopacity="0.0"
     inkscape:pagecheckerboard="0"
     inkscape:document-units="mm"
     showgrid="false"
     inkscape:zoom="0.51758558"
     inkscape:cx="396.06977"
     inkscape:cy="562.22587"
     inkscape:window-width="1190"
     inkscape:window-height="728"
     inkscape:window-x="250"
     inkscape:window-y="25"
     inkscape:window-maximized="0"
     inkscape:current-layer="layer1" />
  <defs
     id="defs1231" />
  <g
     inkscape:label="Layer 1"
     inkscape:groupmode="layer"
     id="layer1">
    <path
       style="fill:#4d4d4d;stroke-width:0.419345"
       d="m 16.285576,169.1669 c 0.612684,-0.71075 1.330513,-1.32108 2.000005,-1.97639 5.567684,-5.24655 11.282531,-10.33343 16.918579,-15.50581 3.011565,-2.74392 6.005521,-5.50713 8.973623,-8.29803 0.316225,-0.17967 -0.254409,-0.3529 -0.334973,-0.52967 -8.047956,-7.31559 -16.121546,-14.6032 -24.130871,-21.96114 -1.122156,-1.03481 -2.250183,-2.06574 -3.315467,-3.15937 -0.312097,-0.34645 0.245731,-0.23568 0.445116,-0.25043 4.821579,-0.0885 9.644244,-0.0743 14.466369,-0.10246 36.84783,-0.10699 73.695813,-0.0185 110.543703,0.004 7.89216,0.007 15.78433,0.0144 23.67649,0.0217 5.28651,4.84105 10.55924,9.69712 15.83965,14.54481 2.83969,2.60459 5.70834,5.17798 8.51428,7.81912 1.21399,1.1479 2.42358,2.30548 3.54996,3.53897 0.27054,0.32517 -0.27004,0.53446 -0.42716,0.76892 -2.04982,1.98417 -4.16251,3.902 -6.25269,5.84325 -7.10354,6.53783 -14.25891,13.01899 -21.39027,19.52639 -1.94555,0.07 -3.94145,0.01 -5.9064,0.0299 -29.8991,-0.006 -59.798211,0.0148 -89.697298,-0.0139 -16.515674,-0.0233 -33.031655,-0.0446 -49.546729,-0.19788 -1.296717,-0.0171 -2.594408,-0.0289 -3.889707,-0.0911 l -0.03621,-0.0109 z"
       id="path1325"
       inkscape:export-filename="/Users/ksergi/Desktop/swallowtail arrow.png"
       inkscape:export-xdpi="96"
       inkscape:export-ydpi="96" />
  </g>
</svg>
