<?xml version="1.0" encoding="utf-8"?>
<!-- Svg Vector Icons : http://www.onlinewebfonts.com/icon -->
<!DOCTYPE svg PUBLIC "-//W3C//DTD SVG 1.1//EN" "http://www.w3.org/Graphics/SVG/1.1/DTD/svg11.dtd">
<svg xmlns:xlink="http://www.w3.org/1999/xlink"
     version="1.1"
     xmlns="http://www.w3.org/2000/svg"
     x="0px"
     y="0px"
     viewBox="0 0 1000 1000"
     enable-background="new 0 0 1000 1000"
     xml:space="preserve">
<metadata> Svg Vector Icons : http://www.onlinewebfonts.com/icon </metadata>
    <g><path d="M691.9,217.5c0,50,40.5,90.5,90.5,90.5c50,0,90.5-40.5,90.5-90.5c0-50-40.5-90.5-90.5-90.5C732.5,127,691.9,167.5,691.9,217.5z"/>
        <path
                d="M808.9,500c0,50,40.5,90.5,90.5,90.5c50,0,90.5-40.5,90.5-90.5c0-50-40.5-90.5-90.5-90.5C849.5,409.5,808.9,450,808.9,500L808.9,500z"/>
        <path
                d="M691.9,782.5c0,50,40.5,90.5,90.5,90.5c50,0,90.5-40.5,90.5-90.5c0-50-40.5-90.5-90.5-90.5C732.5,691.9,691.9,732.5,691.9,782.5z"/>
        <path
                d="M409.5,899.5c0,50,40.5,90.5,90.5,90.5c50,0,90.5-40.5,90.5-90.5c0-50-40.5-90.5-90.5-90.5C450,808.9,409.5,849.5,409.5,899.5z"/>
        <path
                d="M127,782.5c0,50,40.5,90.5,90.5,90.5s90.5-40.5,90.5-90.5c0-50-40.5-90.5-90.5-90.5S127,732.5,127,782.5L127,782.5z"/>
        <path
                d="M10,500c0,50,40.5,90.5,90.5,90.5s90.5-40.5,90.5-90.5c0-50-40.5-90.5-90.5-90.5S10,450,10,500z"/>
        <path
                d="M127,217.5c0,50,40.5,90.5,90.5,90.5s90.5-40.5,90.5-90.5S267.5,127,217.5,127S127,167.5,127,217.5z"/>
        <path
                d="M409.5,100.5c0,50,40.5,90.5,90.5,90.5c50,0,90.5-40.5,90.5-90.5S550,10,500,10C450,10,409.5,50.5,409.5,100.5z"/></g>
</svg>
